<?xml version="1.0" encoding="utf-8"?>
<!-- Generator: Adobe Illustrator 26.0.1, SVG Export Plug-In . SVG Version: 6.00 Build 0)  -->
<svg version="1.1" id="Layer_1" xmlns="http://www.w3.org/2000/svg" xmlns:xlink="http://www.w3.org/1999/xlink" x="0px" y="0px"
	 viewBox="0 0 219.3 292.7" style="enable-background:new 0 0 219.3 292.7;" xml:space="preserve">
<style type="text/css">
	.st0{fill:#004A98;}
	.st1{fill-rule:evenodd;clip-rule:evenodd;fill:#FFD100;}
	.st2{fill-rule:evenodd;clip-rule:evenodd;fill:#231F20;}
	.st3{fill-rule:evenodd;clip-rule:evenodd;fill:#FFFFFF;}
	.st4{fill:#FFD100;}
</style>
<g>
	<path class="st0" d="M3.3,18.1c2.5,60.4,5.2,120.7,7.9,181.1c0.9,20.6-0.1,24.5,10.6,37.2c5.6,6.7,17,14.6,26,20.6
		c8.3,5.6,54.1,32.3,61.9,32.1c7.3-0.1,53.5-26.7,62.3-32.5c11.5-7.5,31.8-21.5,35.3-35.9c1.2-4.9,1.2-15.8,1.4-21.5
		c1-19.8,8.9-164.2,7.5-180.9c-3.5-1.6-5.6-3.3-10.7-4.9c-12.4-3.9-25-5.3-38.2-6.7C125.1,2.1,36-0.5,3.3,18.1 M18.4,59.7
		c25-14.7,160.9-15.8,183.3,0.8l-0.2,5.7c-3.3-0.4-13.8-4.3-19.7-5.5c-7.6-1.6-15.1-2.5-22.9-3.4c-32.4-3.7-89.7-3.7-121.8,3.2
		c-4.6,1-17.4,5.9-18.7,5.9L18.4,59.7z M201.2,73.2c0,29.8-3,63.2-4.5,93.2c-0.8,15.5-1.4,31.4-2.5,46.8
		c-1.5,19.7-37.5,37-53.5,44.7c-7.2,3.5-27.6,14.8-34.8,12.1c-20.4-7.8-49.9-22.5-64.3-33.8c-16-12.6-15.5-14.7-16.4-32.8l-4.5-93.3
		c-0.4-8-0.8-15.8-1.1-23.7c-0.5-10.7-3.1-12.9,6.4-16.7c20.7-8.2,65.2-9.5,89.5-8.9C143.7,61.4,178.8,61.5,201.2,73.2z"/>
	<path class="st1" d="M201.2,73.2c-22.4-11.8-57.4-11.9-85.8-12.6c-24.3-0.6-68.8,0.7-89.5,8.9c-9.5,3.8-6.9,6-6.4,16.7
		c0.4,7.9,0.8,15.8,1.1,23.7l4.5,93.3c0.9,18.1,0.5,20.2,16.4,32.8c14.4,11.4,43.9,26,64.3,33.8c7.2,2.7,27.6-8.6,34.8-12.1
		c15.9-7.7,51.9-25,53.5-44.7c1.2-15.3,1.7-31.3,2.5-46.8C198.2,136.4,201.2,103,201.2,73.2"/>
	<path class="st1" d="M0,16.4c0.8,40.9,3.5,82.9,5.3,123.9c0.9,20.1,1.7,40.3,2.6,60.5c1,23.8,0,27.3,19.1,45
		c12.9,12,68.9,44.3,81.5,46.9c4.7,1,37.6-16.9,43-19.8c14.8-8.2,26.4-16,38.6-25.2c18.9-14.2,20.7-23.5,21.6-42.8
		c1-20.2,2-40.4,3-60.6c1-20.4,1.9-40.8,2.8-61.2c0.8-19.8,2.4-42.5,1.6-62.2c-0.2-6.1-2.3-6.1-7.6-8.6c-3.8-1.7-8.1-3-12.4-3.9
		C154.6-1.3,36.9-6.9,0,16.4 M3.3,18.1C36-0.5,125.1,2.1,167.3,6.7c13.1,1.4,25.8,2.8,38.2,6.7c5,1.6,7.1,3.3,10.7,4.9
		c1.4,16.7-6.5,161.1-7.5,180.9c-0.3,5.7-0.3,16.6-1.4,21.5c-3.4,14.4-23.8,28.4-35.3,35.9c-8.8,5.8-55,32.4-62.3,32.5
		c-7.8,0.1-53.6-26.5-61.9-32.1c-9-6-20.4-13.9-26-20.6c-10.7-12.7-9.7-16.6-10.6-37.2C8.5,138.9,5.8,78.5,3.3,18.1z"/>
	<path class="st1" d="M18.4,59.7l0.1,6.7c1.3,0,14.1-4.9,18.7-5.9c32.1-6.9,89.3-6.9,121.8-3.2c7.8,0.9,15.3,1.8,22.9,3.4
		c5.8,1.2,16.3,5.1,19.7,5.5l0.2-5.7C179.3,43.9,43.5,45,18.4,59.7"/>
	<path class="st2" d="M113.3,97.9c15,1.2,28.2,9.2,36.3,21l19.5-8.9l1.8,3.1l-17.4,12.5c3,6.3,4.7,13.4,4.7,20.9s-1.7,14.6-4.7,20.9
		l17.4,12.5l-1.8,3.1l-19.5-8.9c-8.1,11.8-21.2,19.8-36.3,21l-2.1,21.3h-3.6l-2.1-21.3c-15-1.2-28.2-9.2-36.3-21l-19.5,8.9l-1.8-3.1
		l17.4-12.5c-3-6.3-4.7-13.4-4.7-20.9c0-7.5,1.7-14.6,4.7-20.9L48,113.1l1.8-3.1l19.5,8.9c8.1-11.8,21.2-19.8,36.3-21l2.1-21.3h3.6
		L113.3,97.9z"/>
	<path class="st3" d="M82.7,114.7c-2.6,2.2-4.9,4.7-6.9,7.4l2.5,0.5c0.6-0.9,2.9-4.8,5-7.6c0.5-0.7,1.4-1.7,1.4-1.9
		C84.7,112.9,83.3,114.2,82.7,114.7 M99.9,143.3l0.1,0.4c7.1,1.3,14.6,4.7,16.2,5.4l0.2-0.1c1.5-1.1,9-7.7,12.8-11.2l0.5-0.4
		c-0.7-8.2-4.3-15.2-4.3-15.2c-9.2-6-17.2-4.9-17.6-5.2c-1.1,0.7-7.4,4.6-11.5,9.4l0,0.6C96.4,131.8,99.9,143.2,99.9,143.3z
		 M149.3,141.8c0.3,0.4,0.6,0.8,0.9,1.2c0.3,0.4,0.6,1.2,0.7,1.2c0.1,0-0.1-1.1-0.1-1.6c-0.1-2-0.4-4-0.8-5.6
		c-0.1-0.6-0.3-1.9-0.5-1.9c-0.2,0,0,1.3,0,1.9C149.6,139,149.6,141,149.3,141.8C149.4,141.7,149.3,141.8,149.3,141.8z M94.9,126
		c0.2-0.3,4.7-5.4,12.3-10.1c0-0.1,0-0.1,0-0.1c0.1-0.6-0.7-4.6-1.4-7.8c-8.1-0.8-12.8,0.5-12.8,0.5s-2.9,0.8-6.6,3.6
		c-1.3,2-6.5,9.9-7.2,11.3c0,0,0.3,2.1,1.3,4.6C80.6,127.8,93.4,125.9,94.9,126z M142.1,146.5c1.2-0.5,5.1-2.3,6.5-5.2
		c0,0,0.5-4.3-0.2-9.5c-1.6-4.3-4-8.3-6.9-11.8c-2.6-2.2-6.1-3.4-7.1-3.7l-0.5,0.3c-1.1,0.4-7.6,5.5-7.6,5.5
		c3.5,8.6,4.2,14.9,4.2,14.9S132.7,137.7,142.1,146.5z M134.2,115.1l0.4,0.5c2.1,0.6,3.6,1.3,4.7,1.9c-2.8-2.9-5.8-5.4-9.3-7.4
		c-0.8-0.5-2.6-1.4-2.7-1.2c-0.1,0.2,1.6,1,2.2,1.5C132.6,112.9,134.2,115.2,134.2,115.1z M121.1,167.4c0,0-5.5,7-12,9.6
		c0,0.1,0.8,3,1.2,4.4c0.5,1.5,0.9,2.9,1.1,3.7c3.2,1.1,7.4,1.4,8.4,1.4c6.4-1.7,12.3-4.8,17.1-9.1c1.6-5.9-0.1-10.9-0.3-11.6
		C133,168.1,122.4,167.5,121.1,167.4z M138.7,172.5c0,1-0.1,1.7-0.2,2.4c-0.1,0.7-0.3,1.5-0.4,1.6c0,0.1,0.6-0.5,0.8-0.8
		c0.8-0.8,1.6-1.7,2.3-2.6C140.3,173,139.3,172.7,138.7,172.5z M111.1,186.2c-1.2,0.4-4.8,1.7-4.7,1.7c1,0.1,2,0.1,3.1,0.1
		c1.6,0,3.2-0.1,4.7-0.3c0.9-0.1,2.8-0.3,2.8-0.4c0-0.1-1.9-0.3-2.8-0.4C112.4,186.5,111.1,186.2,111.1,186.2z M141.6,172.2
		c4.3-4.1,10.4-16.1,9-27.3c-0.5-0.8-1.6-1.9-1.9-2.2c-0.9,1.3-2.9,3.4-6.3,4.5c0.3,8.9-3.7,16.2-4.7,17.8l1.1,6.6L141.6,172.2z
		 M74.5,145.5l0-0.1c0.3-10.5,4.9-16.7,5.1-17l0.1-0.1c-0.4-0.8-1.2-2.9-1.5-4.7l-3.2-0.4c-4.5,6.6-7.1,14.6-7.1,23.2
		c0,1.5,0.1,3.1,0.3,4.5C69.2,149.6,71.3,147.1,74.5,145.5z M81.2,176.9c-0.1,0.1,3.8,3.3,4,3.2c0.2-0.1-1.5-2.8-1.5-2.8
		S81.3,176.8,81.2,176.9z M86,156l-0.3-0.2c-2.7-1.5-9.5-8.2-10.6-9.3c-0.6,0.3-3.8,1.5-6.7,6.2c1.3,9.1,5.6,17.2,11.8,23.3l3.9,0.5
		c2.7-2.3,5.6-4.9,5.9-5.3c0,0,0,0,0.1-0.1C89.1,169.9,85.7,164.9,86,156z M120.3,166.9l0-0.4c0-1-2.6-10.7-4.3-16.5l0,0
		c-4.7-2.3-14.5-5.1-16.5-5.6l-0.1,0c-3.2,1.5-11.9,10.4-12.6,11.2c-0.1,1.3-0.5,8.8,4.1,15.2c7,5.7,17.1,5.4,17.7,5.7
		C108.6,176.4,113.9,174.6,120.3,166.9z M105.6,107.1l0.8-0.3c2-0.6,3.9-1,5.7-1.2c1.4-0.1,3.9,0,4-0.1c0-0.1-2.8-0.4-4.2-0.5
		c-0.8,0-1.7-0.1-2.5-0.1c-3.8,0-7.4,0.5-10.9,1.4c-0.8,0.2-2.4,0.6-2.4,0.7c0,0.2,1.8-0.1,2.5-0.2
		C104,106.7,105.6,107.1,105.6,107.1z"/>
	<g>
		<path class="st0" d="M52,135.6H40.1v9.1h10.3v7.5H40.1v16.6h-7.5v-40.7H52V135.6z"/>
	</g>
	<g>
		<path class="st0" d="M188.5,164.5l-4.9,4.2h-13.4l-4.8-4.2v-32.2l4.8-4.3h13.4l4.9,4.3v6.3H181v-3.1h-8.1v25.7h8.1V158h7.5V164.5z
			"/>
	</g>
	<g>
		<path class="st0" d="M75,248h-9.2v-19.1h9.1v3.5h-5.6v4.3h4.8v3.5h-4.8v4.3H75V248z"/>
		<path class="st0" d="M87.3,246l-2.3,2h-6.1l-2.3-2V243h3.5v1.5h3.6v-4.3h-4.8l-2.3-2v-7.3l2.3-2H85l2.3,2v3h-3.5v-1.4h-3.6v4.3H85
			l2.3,2V246z"/>
	</g>
	<g>
		<path class="st0" d="M99.6,232.4h-3.5V248h-3.5v-15.6H89v-3.5h10.6V232.4z"/>
	</g>
	<g>
		<path class="st0" d="M101.3,248v-3.5h3.5v3.5H101.3z"/>
		<path class="st0" d="M117.1,248h-3.5v-14.8h-1v-3.5l2.2-0.8h2.4V248z"/>
	</g>
	<g>
		<path class="st0" d="M129.6,246l-2.3,2h-6.1l-2.3-2V243h3.4v1.5h3.6v-4.3h-4.9l-2.3-2v-7.3l2.3-2h6.2l2.3,2V246z M126,236.7v-4.3
			h-3.6v4.3H126z"/>
		<path class="st0" d="M141.8,246l-2.3,2h-6l-2.3-2V243h3.5v1.5h3.5v-5.6h-4.8l-2.3-2v-8h10.4v3.5h-6.9v3h4.8l2.3,2V246z"/>
		<path class="st0" d="M154.2,238.2l-2.3,2h-4.8v4.3h7.2v3.5h-10.7v-9.3l2.3-2h4.9v-4.3h-3.6v1.4h-3.6v-3l2.3-2h6.1l2.3,2V238.2z"/>
	</g>
	<path class="st0" d="M42.3,206.6l2.4-0.1c-0.9,3.4-0.4,6.6,1.3,9.6c2.2,4.1,3.9,3.6,3.7,9.2c1.5-0.6,2.4-1.2,4.5-1.4
		c2.9-0.2,4.7,1.7,9.8,0.2c1.7-0.5,2.7-1.4,4.2-2.9l1.1,1.7l0.8-1c1.4-2.3,2.3-5,1.7-7.6c-1.8,1.8-5,3.3-6.8,3.4
		c0.1,0.2,1.4,1.4,1.7,1.6c-3.2,2.5-10.1,1.3-7.8-4.3c0.6-1.5,6.6-11.5,8-14l5.2,3.1l3.3-1.6l-7.1-4.3l1.3-2.3
		c1.6-0.3,3.2-0.1,4.4-2.6c0.9-1.8,0.2-3.1-0.5-4c-0.6-0.9-1.4-1.4-2.4-1.6c-0.6-0.2-1.4-0.2-2.1,0c-0.7,0.2-1.6,0.7-2.1,1.5
		c-1.7,2.2-0.5,4-0.2,5l-1.5,2.2L58,192l0.1,3.5l5.2,3.3c-1.7,2.6-7.2,11.5-8.9,13.2c-3.9,4-7.4,0.9-7.2-4.9l1.7,1.1
		c0.2-1.3-0.1-2.4,0-3.7c0.1-1.2,0.5-2.5,0.7-3.8C47.2,201.5,43.8,204.3,42.3,206.6 M70.5,189.4c3,0.6,1.9,5-0.9,4.4
		C66.6,193.1,67.8,188.8,70.5,189.4z"/>
	<path class="st0" d="M151.4,186.6l15.1,25.1c0.2,0.3,0.4,0.6-0.1,0.8c-0.5,0.3-6.7,4-6.7,4L151.4,186.6z"/>
	<path class="st0" d="M153.1,187.1l15.1,25.2c0.2,0.3,0.3,0.6,0.7,0.3c0.5-0.3,9.3-5.5,9.3-5.5L153.1,187.1z"/>
	<path class="st0" d="M168.9,214.1L151.5,185c-0.1-0.1-0.2-0.2-0.4-0.1c-0.1,0.1-0.2,0.2-0.1,0.4l17.4,29.1L168.9,214.1z"/>
	<path class="st0" d="M159.6,221.7c0,0,0-0.9,0.3-1.5c0.2-0.6,0.2-0.6,1-1c0.8-0.5,3.3-2.1,6.8-4.1c3.5-1.9,4.2-1.9,5.1-2.1
		c0.9-0.1,1.8,0.1,1.8,0.1s-0.2,0.3-2.9,2c-2.7,1.6-8,4.6-9.5,5.4C160.7,221.3,159.6,221.7,159.6,221.7"/>
	<path class="st0" d="M158.7,224.8c0,0-0.4-0.4-0.5-0.8c-0.1-0.4,0-0.7,0-0.8c0-0.1,0-0.1,0.2-0.2s5-2.7,12.9-7.3
		c7.8-4.6,8.3-5.2,8.6-5.4c0.3-0.2,0.4-0.4,0.4-0.4s0.7,1.2,0.7,2.1c0.1,1-0.1,1.2-0.2,1.3c-0.1,0.1-2.9,2.2-5.4,3.8
		c-2.4,1.6-7,4.1-9.5,5.1C163.4,223.3,160.9,224.3,158.7,224.8"/>
	<rect x="158.1" y="221.8" transform="matrix(0.8578 -0.514 0.514 0.8578 -91.7898 112.9145)" class="st0" width="0.2" height="1"/>
	<rect x="179.5" y="208.9" transform="matrix(0.8578 -0.514 0.514 0.8578 -82.1052 122.1215)" class="st0" width="0.2" height="1"/>
	<path class="st0" d="M174.1,212.8c0,0,3.4-2,5.1-3.6l0.1,0.1C177.6,210.8,174.1,212.9,174.1,212.8L174.1,212.8z"/>
	<path class="st0" d="M158.2,221.8c0,0,0.8-0.4,1.2-0.6l0.1,0.1C159,221.5,158.2,221.9,158.2,221.8L158.2,221.8z"/>
	<path class="st0" d="M186.5,76.1c0,0.7-0.2,0.9-0.5,1.5c0,0.1-0.1,0.1-0.1,0.2c-0.3,0.6-0.7,1.1-1.1,1.7l-0.3,0.4
		c-0.2,0.2-0.4,0.5-0.7,0.7c-0.2,0.2-0.5,0.4-0.7,0.7l-0.8,0.6c-0.4,0.3-0.8,0.6-1.2,0.9c-0.1,0.1-0.3,0.2-0.4,0.3l-0.8,0.6
		c-0.4,0.3-0.8,0.6-1.2,0.9c-0.8,0.5-2,1.3-2.6,1.9l-0.2,0.2c-0.2,0.2-0.5,0.6-0.5,0.9c0,0.7,0.2,1.3,0.4,1.9
		c0.1,0.3,0.4,1.2,0.5,1.5c0.1-0.1,0.2-0.1,0.4-0.2l0.5-0.4c0.3-0.2,0.5-0.5,0.6-0.8c0.1-0.2,0.2-0.1,0.5-0.1
		c0.6-0.1,1.2-0.3,1.7,0.1c0.2,0.1,0.3,0.3,0.4,0.5c0.1,0.1,0.2,0.3,0.2,0.4c0.2,0.7-0.2,1.1-0.6,1.6c-0.4,0.4-0.9,0.7-1.3,1
		l-0.8,0.4c-0.1,0-0.1,0.1-0.2,0.1c-0.2,0.1-0.5,0.2-0.5,0.5c0,0.4,0.4,1.6,0.5,2l1.8,6.6c0,0.1,0,0-0.4,0.1
		c-0.5,0.2-1.1,0.7-1.5,0.7c-0.4,0-0.5-0.2-0.8-0.5l-0.3-0.4c-0.3-0.4-0.5-0.7-0.8-1.1c-0.5-0.6-1.1-0.7-1.6-1.2
		c-0.3-0.3-0.6-0.7-0.9-1c-0.1-0.2-0.3-0.4-0.4-0.5c-0.2-0.2-0.5-0.5-0.8-0.6c-0.2-0.1-0.2,0-0.2-0.2c-0.2-0.5-0.6-0.7-0.7-1.1
		c-0.2-0.5-0.1-1.4-1-1.2c-0.1,0-0.2,0.1-0.3,0.1h-0.9c0-0.1,0.1-0.4,0.1-0.5c-0.7-0.4-1.4-0.8-2.1-1.1c-0.1-0.1-0.3-0.2-0.5-0.1
		c-0.4,0.1-1,0.4-1.4,0.5c-0.9,0.4-1.3,0.5-2.1,1.1c-0.1,0.1-0.2,0.2-0.4,0.3l-2.4,1.5c-0.1,0.1-0.3,0.2-0.4,0.2l-0.9,0.4
		c-0.3,0.1-0.6,0.3-0.9,0.4c-0.1,0.1-0.3,0.1-0.4,0.2c-0.1,0-0.1,0.1-0.2,0.1l-1.1,0.5c-0.6,0.3-0.7,0.4-0.6,1l0.2,0.8
		c0.1,0.3,0.2,0.7,0.2,1l0.4,1.5c0.1,0.5,0.2,0.9-0.2,1.2c-0.2,0.2-0.5,0.3-0.8,0.3c-0.4,0-0.9-0.5-1.2-0.8c-0.1,0-0.1-0.1-0.1-0.1
		l-1.5-1.3c-0.1-0.1-0.2-0.2-0.3-0.2c-0.1-0.1-0.2-0.2-0.3-0.2l-0.5-0.4c0,0,0,0-0.1-0.1c-0.6-0.5-0.5-0.4-1.3-0.2
		c-0.7,0.2-0.9,0.1-1.5,0c0-0.1,0.1-0.3,0.1-0.4c0.1-0.2,0.4-1,0.4-1.1c-0.1,0-4-1.6-4.1-1.6l-2.3-0.9c-0.3-0.1-0.2-0.3-1.2-0.6
		c-0.1,0-0.2-0.1-0.3-0.1c-0.1,0-0.2-0.1-0.3-0.1c0.1-0.2,0.4-0.5,0.6-0.6c0.5-0.4,1.2-0.3,1.8-0.2c0.8,0.1,1.7,0.2,2.5,0.3
		c0.1,0,0.2,0,0.4,0l0.7,0.1c0.2,0,1.4,0.1,1.5,0.2c0-0.1-0.2-0.3-0.2-0.5l-0.7-1.4c-0.3-0.6-0.5-0.9,0.3-1.5c0.7-0.5,1-0.6,1.8-0.3
		c0.2,0.1,0.4,0.1,0.6,0.2c0.2,0.1,0.4,0.1,0.6,0.2l1.6,0.5c0.1,0,0.2,0.1,0.3,0.1c0.2,0.1,0.4,0.1,0.6,0.2c0.2,0.1,0.5,0.2,0.8,0.2
		c0.3,0,0.8-0.4,1.1-0.6c0.5-0.3,0.9-0.7,1.3-1l3.1-2.2c0.1-0.1,0.3-0.2,0.4-0.3c0.1,0,0.1-0.1,0.2-0.1c0.1-0.1,0.1-0.1,0.1-0.2
		c-0.4-0.1-0.8-0.5-1.3-0.5l-0.3,0c0-0.2,0.1-0.4,0.1-0.5c-0.1,0-0.3-0.1-0.4-0.2c-0.1-0.1-0.2-0.1-0.4-0.2c0.1-0.2,0.3-0.4,0.4-0.6
		c-0.5,0-0.3,0-0.6-0.2c-0.6-0.4-1-0.4-1.6-0.4c-0.3,0-0.7-0.1-1-0.1c-0.2-0.1-0.4-0.1-0.5-0.2c-0.3-0.1-0.6-0.2-0.9-0.1
		c-0.1,0-0.2,0-0.2,0c-0.1-0.5-0.5-0.6-0.9-0.7l-2.4-1c-0.4-0.1-0.5-0.3-1-0.2c-0.1,0-0.2,0.1-0.3,0.1c0-0.2,0.1-0.4,0.1-0.5
		c-0.1,0-0.2-0.1-0.3-0.1l-0.8-0.3c-0.2-0.1-0.3-0.1-0.5-0.2c-0.1-0.1-0.4-0.2-0.5-0.2c0-0.1,0.1-0.4,0.1-0.5
		c-0.1-0.1-0.3-0.1-0.4-0.1c-0.5-0.2-1.1-0.4-1.6-0.6l-2-0.7c-0.3-0.1-2.3-0.8-2.4-0.9c0-0.2,0.5-0.7,0.7-0.8
		c0.1-0.1,0.3-0.2,0.5-0.3c0.5-0.2,1.2-0.1,1.7,0c0.8,0.1,1.5,0.3,2.3,0.4l1.6,0.3c0.5,0.1,1,0.2,1.6,0.3c1,0.2,2.1,0.4,3.1,0.6
		l2.3,0.4c0.3,0,0.5,0.1,0.8,0.1c0.5,0.1,1,0.2,1.6,0.3c1.5,0.3,3.3,0.6,4.7,0.8c0.3,0,0.5,0.1,0.8,0.1c0.4,0.1,0.7,0.1,1.1-0.2
		l0.2-0.2c0.6-0.6,2.3-1.7,2.9-1.7c0.8,0,1.7,1.4,1.2,2.3c-0.1,0.1-0.3,0.4-0.3,0.5c0.5,0,0.7,0.2,1.4-0.1c0.3-0.1,0.5-0.3,0.8-0.5
		c0.6-0.4,1.2-0.8,1.8-1.3l4-2.9c0.5-0.4,1-0.7,1.5-1l1-0.7c0.2-0.1,0.3-0.2,0.5-0.4c0.8-0.6,1.8-1.2,2.8-1.5
		c0.9-0.3,1.3-0.4,2.2-0.4c0.3,0,0.6,0,0.9,0h0.4c0.1,0,0.3,0,0.4,0C186.1,75.4,186.5,75.6,186.5,76.1"/>
	<path class="st0" d="M46.7,96.9l0.2,1.3l-1.1,0.6c0.2,0.8,0.4,0.7,0.6,0.7c0.2,0,0.3-0.2,0.8,0.5c0.8-0.2,1-0.8,1.9-0.9
		c1.6-0.2,0.8-0.3,1.7-1.2c0.9-1,2.8-1,4.1-1.6c2.1-0.9,0.5-1.3,4.1-0.1l8.6,2.8c0.7,0.4,0.9,0.9,1.3,1.6c1.5,2.7,0.8,2.4,2.9,4.3
		c0.3,0.3,0.4,0.6,0.7,0.8c0.2,0.2,0.5,0.3,0.8,0.6c0.4,0.4,1.4,1.4,1.9,1.7c0.3,0.1,0.3,0.1,0.5,0c0.1,0.5,0.4,0.8,0.9,0.8
		c0-0.6-0.9-3.2-1.2-3.8c-0.5-1.1-1.1-2.3-1.7-3.4c-0.6-1.2-1.2-2-1.8-3.2c-2-3.8-0.8-2.6-5.7-4.5c-1.3-0.5-2.4-1.1-3.4-1.8
		c-2.4-1.8-2-1.3-1.8-3c0.1-1.2,0.1-1.1,1-1.5c1.6-0.7,1.1,0.2,2,0.1c0.2-0.3,0.4-0.7,0.1-1.2c-0.2-0.4-0.6-0.4-1.1-0.5
		c-1.3-0.3-0.6-0.9-1.9-1.2c-2.5-0.6-3.1,1.8-4.6,1.8c-1.1,0-2.9-2.2-3.4-2.9C52,82.2,50,78,49.7,77.7c-1.2-1.1-4.7-2.6-6.2-3.3
		c-2.2-1.1-4.5-1.3-7.1-2.4C35.8,71.7,34.5,71,34,71l1.1,1.8c1.2,1.7,0.9,1,1.4,1.6c0.3,0.4,1,1.1,1.5,1.5c0.7,0.6,1.3,0.6,1.9,1.1
		l2.1,0.9c2.7,0.8,1.1,0.1,3.1,1.4c1.5,1,0.9,1.5,1.8,2.8c0.5,0.8,0.9,2,1.5,2.9c0.2,0.3,0.3,0.7,0.5,1l0.8,1.3
		c0.5,0.7,0.1-0.1,0.6,0.9c0.1,0.3,0.5,0.5,0.8,1.4c0.4,1.1,0.1,1.5-0.3,2.3c-1,1.7-1.4,3.3-3.1,4.4C47.4,96.5,47,96.7,46.7,96.9"/>
	<path class="st4" d="M43.1,41.5l-3.7-21l-7,1.2l3.7,21L43.1,41.5z M49.7,43.1l-3.4,4.2l-11.4,2l-4.5-2.8l-4.6-26.3l3.3-4.2l11.4-2
		l4.6,2.8L49.7,43.1z"/>
	<polygon class="st4" points="69.2,45 60.9,28 62.4,45.6 56.2,46.1 53.3,12.5 60,11.9 68.3,29 66.8,11.3 72.9,10.8 75.9,44.4 
		75.9,44.4 	"/>
	<polygon class="st4" points="98,43.6 81.8,44.1 80.7,10.4 96.9,9.9 97.1,16.1 87.2,16.4 87.4,23.9 95.9,23.7 96.1,29.9 87.6,30.2 
		87.8,37.7 97.9,37.4 	"/>
	<path class="st4" d="M110.3,23.5l6.5,0l0-7.5l-6.5,0L110.3,23.5z M124,43.6l-6.7,0l-5.2-13.8l-1.8,0l-0.1,13.8l-6.3,0l0.2-33.8
		l15,0.1l4,3.6L123,25.7l-4.3,4L124,43.6z"/>
	<path class="st4" d="M143.9,30.6l-1.4-10.2l-2.6,10L143.9,30.6z M145.8,44.5l-1.1-7.6l-6.5-0.4l-1.9,7.4l-6.4-0.4l8.7-33.3l8.8,0.5
		l4.8,34.1L145.8,44.5z"/>
	<polygon class="st4" points="177.5,47.6 171.3,46.9 172.8,33.2 165.8,32.4 164.2,46.1 158,45.4 161.8,11.8 168,12.5 166.5,26.2 
		173.5,27 175.1,13.3 181.3,14 	"/>
	
		<rect x="173.6" y="30" transform="matrix(0.1795 -0.9838 0.9838 0.1795 123.6893 214.5105)" class="st4" width="33.8" height="6.3"/>
</g>
</svg>
